# xmcd
#
# Track frame offsets:
#	150
#	16690
#	34113
#	47799
#	66144
#	81564
#	97764
#	113850
#	129979
#	143249
#	160229
#	174302
#	192484
#	207740
#	221778
#	237547
#
# Disc length: 3375 seconds
#
# Revision: 0
# Processed by: cddbd v1.5.2PL0 Copyright (c) Steve Scherf et al.
# Submitted via: EasyCDDAExtractor 10.0.3.1
#
DISCID=e70d2d10
DTITLE=Various Artist - MAGIC NEWS
DYEAR=1900
DGENRE=
TTITLE0=GIGI D'AGOSTINO - Silence (Vision 4)
TTITLE1=KATE RYAN - Only If I - RADIO EDIT
TTITLE2=IN-GRID - Shock - ORIGINAL RADIO EDIT
TTITLE3=TWOFACE - Fire In Your Eyes - ALBUM VERSION
TTITLE4=THE VINYLISTIC - I Remember You - RADIO N' VERSION
TTITLE5=BENASSI BROS feat. SANDY - Illusion - SFACTION MIX RADIO EDIT
TTITLE6=NOFERINI and DJ GUJ feat. HILARY - A Sunny Day - ORIGINAL RADIO MIX
TTITLE7=BUSE - Love 2 Nite - RADIO EDIT
TTITLE8=TIESTO - Traffic - RADIO EDIT
TTITLE9=BOOGIE PIMPS - Somebody To Love - RADIO MIX
TTITLE10=LASGO - Surrender - UK RADIO EDIT
TTITLE11=EDDY WATA - Jam - RADIO EDIT
TTITLE12=DR KUCHO! feat. JODIE - Belmondo Rulez 2.0 - BOB SINCLAR RADIO EDIT
TTITLE13=KADOC - The Nighttrain - KOSMONOVA RADIO REMIX
TTITLE14=KOSMONOVA - Raumpatrouille - DREAM RADIO EDIT
TTITLE15=ALEGRIA - Cuba Libre - RADIO EDIT
EXTD=
EXTT0=
EXTT1=
EXTT2=
EXTT3=
EXTT4=
EXTT5=
EXTT6=
EXTT7=
EXTT8=
EXTT9=
EXTT10=
EXTT11=
EXTT12=
EXTT13=
EXTT14=
EXTT15=
PLAYORDER=
